mtllib ItmCd.mtl

v 0.119971 -3.325928 -1.377686
v 0.121729 -0.446924 0.000000
v 0.119971 -3.600000 0.000000
v 0.121729 -0.412939 -0.170947
v 0.119971 -2.545606 -2.545606
v 0.121729 -0.315967 -0.315967
v 0.119971 -1.377686 -3.325928
v 0.121729 -0.170947 -0.412939
v 0.119971 0.000000 -3.600000
v 0.121729 0.000000 -0.446924
v 0.119971 1.377686 -3.325928
v 0.121729 0.170947 -0.412939
v 0.119971 2.545606 -2.545606
v 0.121729 0.315967 -0.315967
v 0.119971 3.325928 -1.377686
v 0.121729 0.412939 -0.170947
v 0.119971 3.600000 0.000000
v 0.121729 0.446924 0.000000
v 0.121729 0.412939 0.170947
v -0.121729 0.446924 0.000000
v 0.121729 0.446924 0.000000
v -0.121729 0.412939 0.170947
v 0.121729 0.315967 0.315967
v -0.121729 0.315967 0.315967
v 0.121729 0.170947 0.412939
v -0.121729 0.170947 0.412939
v 0.121729 0.000000 0.446924
v -0.121729 0.000000 0.446924
v 0.121729 -0.170947 0.412939
v -0.121729 -0.170947 0.412939
v 0.121729 -0.315967 0.315967
v -0.121729 -0.315967 0.315967
v 0.121729 -0.412939 0.170947
v -0.121729 -0.412939 0.170947
v 0.121729 -0.446924 0.000000
v -0.121729 -0.446924 0.000000
v 0.121729 -0.412939 0.170947
v 0.119971 -3.600000 0.000000
v 0.121729 -0.446924 0.000000
v 0.119971 -3.325928 1.377686
v 0.121729 -0.315967 0.315967
v 0.119971 -2.545606 2.545606
v 0.121729 -0.170947 0.412939
v 0.119971 -1.377686 3.325928
v 0.121729 0.000000 0.446924
v 0.119971 0.000000 3.600000
v 0.121729 0.170947 0.412939
v 0.119971 1.377686 3.325928
v 0.121729 0.315967 0.315967
v 0.119971 2.545606 2.545606
v 0.121729 0.412939 0.170947
v 0.119971 3.325928 1.377686
v 0.121729 0.446924 0.000000
v 0.119971 3.600000 0.000000
v 0.119971 -3.325928 1.377686
v -0.119971 -3.600000 0.000000
v 0.119971 -3.600000 0.000000
v -0.119971 -3.325928 1.377686
v 0.119971 -2.545606 2.545606
v -0.119971 -2.545606 2.545606
v 0.119971 -1.377686 3.325928
v -0.119971 -1.377686 3.325928
v 0.119971 0.000000 3.600000
v -0.119971 0.000000 3.600000
v 0.119971 1.377686 3.325928
v -0.119971 1.377686 3.325928
v 0.119971 2.545606 2.545606
v -0.119971 2.545606 2.545606
v 0.119971 3.325928 1.377686
v -0.119971 3.325928 1.377686
v 0.119971 3.600000 0.000000
v -0.119971 3.600000 0.000000
v -0.119971 -3.325928 1.377686
v -0.121729 -0.446924 0.000000
v -0.119971 -3.600000 0.000000
v -0.121729 -0.412939 0.170947
v -0.119971 -2.545606 2.545606
v -0.121729 -0.315967 0.315967
v -0.119971 -1.377686 3.325928
v -0.121729 -0.170947 0.412939
v -0.119971 0.000000 3.600000
v -0.121729 0.000000 0.446924
v -0.119971 1.377686 3.325928
v -0.121729 0.170947 0.412939
v -0.119971 2.545606 2.545606
v -0.121729 0.315967 0.315967
v -0.119971 3.325928 1.377686
v -0.121729 0.412939 0.170947
v -0.119971 3.600000 0.000000
v -0.121729 0.446924 0.000000
v 0.121729 0.412939 -0.170947
v -0.121729 0.412939 -0.170947
v -0.121729 0.412939 -0.170947
v 0.121729 0.315967 -0.315967
v 0.121729 0.412939 -0.170947
v -0.121729 0.315967 -0.315967
v 0.121729 0.170947 -0.412939
v -0.121729 0.170947 -0.412939
v 0.121729 0.000000 -0.446924
v -0.121729 0.000000 -0.446924
v 0.121729 -0.170947 -0.412939
v -0.121729 -0.170947 -0.412939
v 0.121729 -0.315967 -0.315967
v -0.121729 -0.315967 -0.315967
v 0.121729 -0.412939 -0.170947
v -0.121729 -0.412939 -0.170947
v -0.121729 -0.412939 -0.170947
v 0.121729 -0.412939 -0.170947
v -0.119971 -3.600000 0.000000
v 0.119971 -3.325928 -1.377686
v 0.119971 -3.600000 0.000000
v -0.119971 -3.325928 -1.377686
v 0.119971 -2.545606 -2.545606
v -0.119971 -2.545606 -2.545606
v 0.119971 -1.377686 -3.325928
v -0.119971 -1.377686 -3.325928
v 0.119971 0.000000 -3.600000
v -0.119971 0.000000 -3.600000
v 0.119971 1.377686 -3.325928
v -0.119971 1.377686 -3.325928
v 0.119971 2.545606 -2.545606
v -0.119971 2.545606 -2.545606
v 0.119971 3.325928 -1.377686
v -0.119971 3.325928 -1.377686
v 0.119971 3.600000 0.000000
v -0.119971 3.600000 0.000000
v -0.121729 -0.446924 0.000000
v -0.119971 -3.325928 -1.377686
v -0.119971 -3.600000 0.000000
v -0.121729 -0.412939 -0.170947
v -0.119971 -2.545606 -2.545606
v -0.121729 -0.315967 -0.315967
v -0.119971 -1.377686 -3.325928
v -0.121729 -0.170947 -0.412939
v -0.119971 0.000000 -3.600000
v -0.121729 0.000000 -0.446924
v -0.119971 1.377686 -3.325928
v -0.121729 0.170947 -0.412939
v -0.119971 2.545606 -2.545606
v -0.121729 0.315967 -0.315967
v -0.119971 3.325928 -1.377686
v -0.121729 0.412939 -0.170947
v -0.119971 3.600000 0.000000
v -0.121729 0.446924 0.000000

vt 0.391479 0.946808
vt 0.034393 0.560028
vt 0.034393 0.983643
vt 0.078735 0.555481
vt 0.694183 0.841980
vt 0.116302 0.542450
vt 0.896423 0.685089
vt 0.141418 0.522980
vt 0.967468 0.500000
vt 0.150238 0.500000
vt 0.896423 0.314911
vt 0.141418 0.477020
vt 0.694183 0.158020
vt 0.116302 0.457550
vt 0.391479 0.053192
vt 0.078735 0.444519
vt 0.034393 0.016357
vt 0.034393 0.439972
vt 0.078186 0.555481
vt 0.034393 0.560028
vt 0.034393 0.560028
vt 0.078186 0.555481
vt 0.115753 0.542450
vt 0.115753 0.542450
vt 0.140869 0.522980
vt 0.140869 0.522980
vt 0.149689 0.500000
vt 0.149689 0.500000
vt 0.140869 0.477020
vt 0.140869 0.477020
vt 0.115753 0.457550
vt 0.115753 0.457550
vt 0.078186 0.444519
vt 0.078186 0.444519
vt 0.034393 0.439972
vt 0.034393 0.439972
vt 0.078186 0.444519
vt 0.034393 0.016357
vt 0.034393 0.439972
vt 0.390930 0.053192
vt 0.115753 0.457550
vt 0.693634 0.158020
vt 0.140869 0.477020
vt 0.895905 0.314911
vt 0.149689 0.500000
vt 0.966919 0.500000
vt 0.140869 0.522980
vt 0.895905 0.685089
vt 0.115753 0.542450
vt 0.693634 0.841980
vt 0.078186 0.555481
vt 0.390930 0.946808
vt 0.034393 0.560028
vt 0.034393 0.983643
vt 0.390930 0.053192
vt 0.034393 0.016357
vt 0.034393 0.016357
vt 0.390930 0.053192
vt 0.693634 0.158020
vt 0.693634 0.158020
vt 0.895905 0.314911
vt 0.895905 0.314911
vt 0.966919 0.500000
vt 0.966919 0.500000
vt 0.895905 0.685089
vt 0.895905 0.685089
vt 0.693634 0.841980
vt 0.693634 0.841980
vt 0.390930 0.946808
vt 0.390930 0.946808
vt 0.034393 0.983643
vt 0.034393 0.983643
vt 0.390930 0.053192
vt 0.034393 0.439972
vt 0.034393 0.016357
vt 0.078186 0.444519
vt 0.693634 0.158020
vt 0.115753 0.457550
vt 0.895905 0.314911
vt 0.140869 0.477020
vt 0.966919 0.500000
vt 0.149689 0.500000
vt 0.895905 0.685089
vt 0.140869 0.522980
vt 0.693634 0.841980
vt 0.115753 0.542450
vt 0.390930 0.946808
vt 0.078186 0.555481
vt 0.034393 0.983643
vt 0.034393 0.560028
vt 0.078735 0.555481
vt 0.078735 0.555481
vt 0.078735 0.444519
vt 0.116302 0.457550
vt 0.078735 0.444519
vt 0.116302 0.457550
vt 0.141418 0.477020
vt 0.141418 0.477020
vt 0.150238 0.500000
vt 0.150238 0.500000
vt 0.141418 0.522980
vt 0.141418 0.522980
vt 0.116302 0.542450
vt 0.116302 0.542450
vt 0.078735 0.555481
vt 0.078735 0.555481
vt 0.078735 0.444519
vt 0.078735 0.444519
vt 0.034393 0.983643
vt 0.391479 0.946808
vt 0.034393 0.983643
vt 0.391479 0.946808
vt 0.694183 0.841980
vt 0.694183 0.841980
vt 0.896423 0.685089
vt 0.896423 0.685089
vt 0.967468 0.500000
vt 0.967468 0.500000
vt 0.896423 0.314911
vt 0.896423 0.314911
vt 0.694183 0.158020
vt 0.694183 0.158020
vt 0.391479 0.053192
vt 0.391479 0.053192
vt 0.034393 0.016357
vt 0.034393 0.016357
vt 0.034393 0.560028
vt 0.391479 0.946808
vt 0.034393 0.983643
vt 0.078735 0.555481
vt 0.694183 0.841980
vt 0.116302 0.542450
vt 0.896423 0.685089
vt 0.141418 0.522980
vt 0.967468 0.500000
vt 0.150238 0.500000
vt 0.896423 0.314911
vt 0.141418 0.477020
vt 0.694183 0.158020
vt 0.116302 0.457550
vt 0.391479 0.053192
vt 0.078735 0.444519
vt 0.034393 0.016357
vt 0.034393 0.439972

vn 1.000000 0.000549 0.000122
vn 1.000000 0.000549 0.000122
vn 1.000000 0.000549 0.000122
vn 1.000000 0.000549 0.000122
vn 1.000000 0.000549 0.000122
vn 1.000000 0.000549 0.000122
vn 1.000000 0.000549 0.000122
vn 1.000000 0.000549 0.000122
vn 1.000000 0.000549 0.000122
vn 1.000000 0.000549 0.000122
vn 1.000000 0.000549 0.000122
vn 1.000000 0.000549 0.000122
vn 1.000000 0.000549 0.000122
vn 1.000000 0.000549 0.000122
vn 1.000000 0.000549 0.000122
vn 1.000000 0.000549 0.000122
vn 1.000000 0.000549 0.000122
vn 1.000000 0.000549 0.000122
vn 0.000000 -0.947165 -0.320747
vn 0.000000 -1.000000 0.000000
vn 0.000000 -1.000000 0.000000
vn 0.000000 -0.896529 -0.442985
vn 0.000000 -0.752342 -0.658772
vn 0.000000 -0.658772 -0.752342
vn 0.000000 -0.442985 -0.896529
vn 0.000000 -0.320747 -0.947165
vn 0.000000 -0.066163 -0.997809
vn 0.000000 0.066163 -0.997809
vn 0.000000 0.320747 -0.947165
vn 0.000000 0.442985 -0.896529
vn 0.000000 0.658772 -0.752342
vn 0.000000 0.752342 -0.658772
vn 0.000000 0.896529 -0.442985
vn 0.000000 0.947165 -0.320747
vn 0.000000 1.000000 0.000000
vn 0.000000 1.000000 0.000000
vn 1.000000 0.000549 0.000122
vn 1.000000 0.000549 0.000122
vn 1.000000 0.000549 0.000122
vn 1.000000 0.000549 0.000122
vn 1.000000 0.000549 0.000122
vn 1.000000 0.000549 0.000122
vn 1.000000 0.000549 0.000122
vn 1.000000 0.000549 0.000122
vn 1.000000 0.000549 0.000122
vn 1.000000 0.000549 0.000122
vn 1.000000 0.000549 0.000122
vn 1.000000 0.000549 0.000122
vn 1.000000 0.000549 0.000122
vn 1.000000 0.000549 0.000122
vn 1.000000 0.000549 0.000122
vn 1.000000 0.000549 0.000122
vn 1.000000 0.000549 0.000122
vn 1.000000 0.000549 0.000122
vn 0.000000 -0.947165 0.320747
vn 0.000000 -1.000000 0.000000
vn 0.000000 -1.000000 0.000000
vn 0.000000 -0.896529 0.442985
vn 0.000000 -0.752342 0.658772
vn 0.000000 -0.658772 0.752342
vn 0.000000 -0.442985 0.896529
vn 0.000000 -0.320747 0.947165
vn 0.000000 -0.066163 0.997809
vn 0.000000 0.066163 0.997809
vn 0.000000 0.320747 0.947165
vn 0.000000 0.442985 0.896529
vn 0.000000 0.658772 0.752342
vn 0.000000 0.752342 0.658772
vn 0.000000 0.896529 0.442985
vn 0.000000 0.947165 0.320747
vn 0.000000 1.000000 0.000000
vn 0.000000 1.000000 0.000000
vn -1.000000 0.000549 0.000122
vn -1.000000 0.000549 0.000122
vn -1.000000 0.000549 0.000122
vn -1.000000 0.000549 0.000122
vn -1.000000 0.000549 0.000122
vn -1.000000 0.000549 0.000122
vn -1.000000 0.000549 0.000122
vn -1.000000 0.000549 0.000122
vn -1.000000 0.000549 0.000122
vn -1.000000 0.000549 0.000122
vn -1.000000 0.000549 0.000122
vn -1.000000 0.000549 0.000122
vn -1.000000 0.000549 0.000122
vn -1.000000 0.000549 0.000122
vn -1.000000 0.000549 0.000122
vn -1.000000 0.000549 0.000122
vn -1.000000 0.000549 0.000122
vn -1.000000 0.000549 0.000122
vn 0.000000 -0.947165 0.320747
vn 0.000000 -0.896529 0.442985
vn 0.000000 -0.896529 0.442985
vn 0.000000 -0.752342 0.658772
vn 0.000000 -0.947165 0.320747
vn 0.000000 -0.658772 0.752342
vn 0.000000 -0.442985 0.896529
vn 0.000000 -0.320747 0.947165
vn 0.000000 -0.066163 0.997809
vn 0.000000 0.066163 0.997809
vn 0.000000 0.320747 0.947165
vn 0.000000 0.442985 0.896529
vn 0.000000 0.658772 0.752342
vn 0.000000 0.752342 0.658772
vn 0.000000 0.896529 0.442985
vn 0.000000 0.947165 0.320747
vn 0.000000 0.947165 0.320747
vn 0.000000 0.896529 0.442985
vn 0.000000 -1.000000 0.000000
vn 0.000000 -0.947165 -0.320747
vn 0.000000 -1.000000 0.000000
vn 0.000000 -0.896529 -0.442985
vn 0.000000 -0.752342 -0.658772
vn 0.000000 -0.658772 -0.752342
vn 0.000000 -0.442985 -0.896529
vn 0.000000 -0.320747 -0.947165
vn 0.000000 -0.066163 -0.997809
vn 0.000000 0.066163 -0.997809
vn 0.000000 0.320747 -0.947165
vn 0.000000 0.442985 -0.896529
vn 0.000000 0.658772 -0.752342
vn 0.000000 0.752342 -0.658772
vn 0.000000 0.896529 -0.442985
vn 0.000000 0.947165 -0.320747
vn 0.000000 1.000000 0.000000
vn 0.000000 1.000000 0.000000
vn -1.000000 0.000549 0.000122
vn -1.000000 0.000549 0.000122
vn -1.000000 0.000549 0.000122
vn -1.000000 0.000549 0.000122
vn -1.000000 0.000549 0.000122
vn -1.000000 0.000549 0.000122
vn -1.000000 0.000549 0.000122
vn -1.000000 0.000549 0.000122
vn -1.000000 0.000549 0.000122
vn -1.000000 0.000549 0.000122
vn -1.000000 0.000549 0.000122
vn -1.000000 0.000549 0.000122
vn -1.000000 0.000549 0.000122
vn -1.000000 0.000549 0.000122
vn -1.000000 0.000549 0.000122
vn -1.000000 0.000549 0.000122
vn -1.000000 0.000549 0.000122
vn -1.000000 0.000549 0.000122

g polygon0
s 1
usemtl mat1
f 1/1/1 2/2/2 3/3/3
f 1/1/1 4/4/4 2/2/2
f 5/5/5 4/4/4 1/1/1
f 5/5/5 6/6/6 4/4/4
f 7/7/7 6/6/6 5/5/5
f 7/7/7 8/8/8 6/6/6
f 9/9/9 8/8/8 7/7/7
f 9/9/9 10/10/10 8/8/8
f 11/11/11 10/10/10 9/9/9
f 11/11/11 12/12/12 10/10/10
f 13/13/13 12/12/12 11/11/11
f 13/13/13 14/14/14 12/12/12
f 15/15/15 14/14/14 13/13/13
f 15/15/15 16/16/16 14/14/14
f 17/17/17 16/16/16 15/15/15
f 17/17/17 18/18/18 16/16/16
f 19/19/19 20/20/20 21/21/21
f 19/19/19 22/22/22 20/20/20
f 23/23/23 22/22/22 19/19/19
f 23/23/23 24/24/24 22/22/22
f 25/25/25 24/24/24 23/23/23
f 25/25/25 26/26/26 24/24/24
f 27/27/27 26/26/26 25/25/25
f 27/27/27 28/28/28 26/26/26
f 29/29/29 28/28/28 27/27/27
f 29/29/29 30/30/30 28/28/28
f 31/31/31 30/30/30 29/29/29
f 31/31/31 32/32/32 30/30/30
f 33/33/33 32/32/32 31/31/31
f 33/33/33 34/34/34 32/32/32
f 35/35/35 34/34/34 33/33/33
f 35/35/35 36/36/36 34/34/34
f 37/37/37 38/38/38 39/39/39
f 37/37/37 40/40/40 38/38/38
f 41/41/41 40/40/40 37/37/37
f 41/41/41 42/42/42 40/40/40
f 43/43/43 42/42/42 41/41/41
f 43/43/43 44/44/44 42/42/42
f 45/45/45 44/44/44 43/43/43
f 45/45/45 46/46/46 44/44/44
f 47/47/47 46/46/46 45/45/45
f 47/47/47 48/48/48 46/46/46
f 49/49/49 48/48/48 47/47/47
f 49/49/49 50/50/50 48/48/48
f 51/51/51 50/50/50 49/49/49
f 51/51/51 52/52/52 50/50/50
f 53/53/53 52/52/52 51/51/51
f 53/53/53 54/54/54 52/52/52
f 55/55/55 56/56/56 57/57/57
f 55/55/55 58/58/58 56/56/56
f 59/59/59 58/58/58 55/55/55
f 59/59/59 60/60/60 58/58/58
f 61/61/61 60/60/60 59/59/59
f 61/61/61 62/62/62 60/60/60
f 63/63/63 62/62/62 61/61/61
f 63/63/63 64/64/64 62/62/62
f 65/65/65 64/64/64 63/63/63
f 65/65/65 66/66/66 64/64/64
f 67/67/67 66/66/66 65/65/65
f 67/67/67 68/68/68 66/66/66
f 69/69/69 68/68/68 67/67/67
f 69/69/69 70/70/70 68/68/68
f 71/71/71 70/70/70 69/69/69
f 71/71/71 72/72/72 70/70/70
f 73/73/73 74/74/74 75/75/75
f 73/73/73 76/76/76 74/74/74
f 77/77/77 76/76/76 73/73/73
f 77/77/77 78/78/78 76/76/76
f 79/79/79 78/78/78 77/77/77
f 79/79/79 80/80/80 78/78/78
f 81/81/81 80/80/80 79/79/79
f 81/81/81 82/82/82 80/80/80
f 83/83/83 82/82/82 81/81/81
f 83/83/83 84/84/84 82/82/82
f 85/85/85 84/84/84 83/83/83
f 85/85/85 86/86/86 84/84/84
f 87/87/87 86/86/86 85/85/85
f 87/87/87 88/88/88 86/86/86
f 89/89/89 88/88/88 87/87/87
f 89/89/89 90/90/90 88/88/88
f 91/91/91 20/20/20 92/92/92
f 91/91/91 21/21/21 20/20/20
f 93/93/93 94/94/94 95/95/95
f 93/93/93 96/96/96 94/94/94
f 96/96/96 97/97/97 94/94/94
f 96/96/96 98/98/98 97/97/97
f 98/98/98 99/99/99 97/97/97
f 98/98/98 100/100/100 99/99/99
f 100/100/100 101/101/101 99/99/99
f 100/100/100 102/102/102 101/101/101
f 102/102/102 103/103/103 101/101/101
f 102/102/102 104/104/104 103/103/103
f 104/104/104 105/105/105 103/103/103
f 104/104/104 106/106/106 105/105/105
f 107/107/107 35/35/35 108/108/108
f 107/107/107 36/36/36 35/35/35
f 109/109/109 110/110/110 111/111/111
f 109/109/109 112/112/112 110/110/110
f 112/112/112 113/113/113 110/110/110
f 112/112/112 114/114/114 113/113/113
f 114/114/114 115/115/115 113/113/113
f 114/114/114 116/116/116 115/115/115
f 116/116/116 117/117/117 115/115/115
f 116/116/116 118/118/118 117/117/117
f 118/118/118 119/119/119 117/117/117
f 118/118/118 120/120/120 119/119/119
f 120/120/120 121/121/121 119/119/119
f 120/120/120 122/122/122 121/121/121
f 122/122/122 123/123/123 121/121/121
f 122/122/122 124/124/124 123/123/123
f 124/124/124 125/125/125 123/123/123
f 124/124/124 126/126/126 125/125/125
f 127/127/127 128/128/128 129/129/129
f 127/127/127 130/130/130 128/128/128
f 130/130/130 131/131/131 128/128/128
f 130/130/130 132/132/132 131/131/131
f 132/132/132 133/133/133 131/131/131
f 132/132/132 134/134/134 133/133/133
f 134/134/134 135/135/135 133/133/133
f 134/134/134 136/136/136 135/135/135
f 136/136/136 137/137/137 135/135/135
f 136/136/136 138/138/138 137/137/137
f 138/138/138 139/139/139 137/137/137
f 138/138/138 140/140/140 139/139/139
f 140/140/140 141/141/141 139/139/139
f 140/140/140 142/142/142 141/141/141
f 142/142/142 143/143/143 141/141/141
f 142/142/142 144/144/144 143/143/143

