# Blender v2.77 (sub 0) OBJ File: ''
# www.blender.org
mtllib bluemushroom.mtl
o ShapeIndexedFaceSet.080
v -0.000218 0.566240 0.069970
v -0.000856 0.556240 0.284966
v -0.069994 0.566240 -0.000230
v -0.245418 0.556240 0.139242
v 0.000846 0.556240 -0.285006
v 0.000198 0.566240 -0.070012
v -0.244582 0.556240 -0.140752
v 0.069984 0.566240 0.000192
v 0.245408 0.556240 -0.139280
v 0.244570 0.556240 0.140716
v 0.059986 0.390954 -0.000028
v -0.060006 0.390954 -0.000016
v -0.000014 0.390954 -0.060010
v 0.000002 0.390954 0.059972
v 0.084992 0.193756 -0.000288
v 0.000262 0.193756 0.084978
v -0.085002 0.193756 0.000250
v -0.000274 0.193756 -0.085016
v 0.000748 0.000432 0.119964
v 0.119978 0.000432 -0.000772
v -0.000754 0.000432 -0.120010
v -0.119998 0.000432 0.000730
v -0.160266 0.721240 0.089506
v -0.159732 0.721240 -0.090504
v -0.000562 0.721240 0.184978
v 0.000550 0.721240 -0.185016
v 0.160256 0.721240 -0.089546
v 0.159722 0.721240 0.090466
v -0.000008 0.787068 -0.000028
vt 0.7495 0.0000
vt 0.6499 0.5000
vt 0.3350 0.5000
vt 1.0000 0.0000
vt 1.0000 0.5000
vt 0.0000 0.0000
vt 0.0000 0.5000
vt 0.3350 0.5000
vt 0.2500 0.0000
vt 0.7495 0.0000
vt 0.6499 0.5000
vt 0.2500 0.0000
vt 0.5000 1.0000
vt 0.0000 1.0000
vt 0.0000 0.6899
vt 0.4980 0.9995
vt 1.0000 0.9995
vt 1.0000 0.6899
vt 0.4980 0.9995
vt 0.4980 0.6899
vt 0.4980 0.6899
vt 0.0000 0.3413
vt 0.4980 0.3413
vt 1.0000 0.3496
vt 0.4980 0.3413
vt 0.4980 0.0000
vt 0.0000 0.0000
vt 0.4980 0.0000
vt 1.0000 0.0000
vt 1.0000 0.0000
vt 0.0000 0.0996
vt 0.0000 0.0000
vt 0.0000 0.0996
vt 0.0000 0.0000
vt 0.7500 0.0049
vt 1.0000 1.0000
vt 0.2988 0.0049
vt -0.0039 1.0000
vt 0.7500 0.0049
vt -0.0039 1.0000
vt 0.2988 0.0049
vt 1.0000 1.0000
vt 0.7500 0.0049
vt 1.0000 1.0000
vt 0.2988 0.0049
vt -0.0039 1.0000
vt 0.7500 0.0049
vt -0.0039 1.0000
vt 0.2988 0.0049
vt 1.0000 1.0000
vt 0.5000 -0.1494
vt 1.2500 1.0000
vt -0.2500 1.0000
vt 0.5000 -0.1494
vt 1.1992 1.0000
vt -0.1992 1.0000
vn -0.7898 -0.4196 0.4474
vn -0.6032 0.7219 0.3393
vn -0.6012 0.7220 -0.3425
vn -0.0030 -0.4142 0.9102
vn -0.0024 0.7236 0.6902
vn 0.0030 -0.4142 -0.9102
vn 0.0024 0.7236 -0.6903
vn 0.6032 0.7219 -0.3393
vn -0.7872 -0.4197 -0.4519
vn 0.7872 -0.4197 0.4519
vn 0.6012 0.7220 0.3425
vn 0.7898 -0.4196 -0.4474
vn -0.0000 1.0000 -0.0000
vn 0.3798 -0.9251 0.0012
vn 0.9993 0.0361 -0.0001
vn 0.0011 -0.9274 -0.3741
vn -0.3798 -0.9251 -0.0012
vn -0.9993 0.0361 0.0001
vn -0.0011 -0.9274 0.3741
vn -0.0001 0.0361 -0.9993
vn 0.0001 0.0361 0.9993
vn 0.9881 0.1541 -0.0030
vn 0.0030 0.1541 0.9881
vn -0.9881 0.1541 0.0031
vn -0.0030 0.1541 -0.9881
vn 0.0055 -0.5111 0.8595
vn 0.8595 -0.5111 -0.0054
vn -0.0054 -0.5111 -0.8595
vn -0.8595 -0.5111 0.0054
usemtl 76C74D08_c.png
s 1
f 4/1/1 23/2/2 24/3/3
f 2/4/4 25/5/5 23/2/2
f 5/6/6 26/7/7 27/8/8
f 7/9/9 24/3/3 26/7/7
f 10/10/10 28/11/11 25/5/5
f 9/12/12 27/8/8 28/11/11
f 29/13/13 26/7/7 24/3/3
f 29/13/13 25/5/5 28/11/11
f 23/2/2 4/1/1 2/4/4
f 29/13/13 23/2/2 25/5/5
f 24/3/3 7/9/9 4/1/1
f 29/13/13 24/3/3 23/2/2
f 29/13/13 27/8/8 26/7/7
f 26/7/7 5/6/6 7/9/9
f 29/13/13 28/11/11 27/8/8
f 27/8/8 9/12/12 5/6/6
f 25/5/5 2/4/4 10/10/10
f 28/11/11 10/10/10 9/12/12
usemtl 60BE6D88_c.png
f 8/14/14 11/15/15 6/16/16
f 3/17/17 12/18/18 1/19/19
f 6/16/16 13/20/20 3/17/17
f 14/21/21 8/14/14 1/19/19
f 6/16/16 11/15/15 13/20/20
f 1/19/19 12/18/18 14/21/21
f 3/17/17 13/20/20 12/18/18
f 8/14/14 14/21/21 11/15/15
f 15/22/22 13/20/20 11/15/15
f 16/23/23 11/15/15 14/21/21
f 17/24/24 14/21/21 12/18/18
f 18/25/25 12/18/18 13/20/20
f 13/20/20 15/22/22 18/25/25
f 11/15/15 16/23/23 15/22/22
f 14/21/21 17/24/24 16/23/23
f 12/18/18 18/25/25 17/24/24
f 19/26/26 15/22/22 16/23/23
f 15/22/22 20/27/27 18/25/25
f 21/28/28 17/24/24 18/25/25
f 22/29/29 16/23/23 17/24/24
f 15/22/22 19/26/26 20/27/27
f 18/25/25 20/27/27 21/28/28
f 17/24/24 21/28/28 22/29/29
f 16/23/23 22/29/29 19/26/26
f 21/30/28 20/31/27 19/32/26
f 21/30/28 19/33/26 22/34/29
usemtl 42AE4DC_c.png
f 1/35/19 2/36/4 3/37/17
f 2/36/4 4/38/1 3/37/17
f 3/39/17 5/40/6 6/41/16
f 3/39/17 7/42/9 5/40/6
f 6/43/16 5/44/6 8/45/14
f 5/44/6 9/46/12 8/45/14
f 8/47/14 2/48/4 1/49/19
f 8/47/14 10/50/10 2/48/4
f 8/51/14 9/52/12 10/53/10
f 3/54/17 4/55/1 7/56/9
